<svg xmlns="http://www.w3.org/2000/svg" width="655.359" height="655.359" fill-rule="evenodd" clip-rule="evenodd" image-rendering="optimizeQuality" shape-rendering="geometricPrecision" text-rendering="geometricPrecision" viewBox="0 0 6827 6827"><path fill="#1a1a1a" fill-rule="nonzero" d="M3413 1232c372,0 708,151 952,394 244,244 394,580 394,952 0,372 -151,708 -394,952 -244,244 -580,394 -952,394 -372,0 -708,-151 -952,-394 -244,-244 -394,-580 -394,-952 0,-372 151,-708 394,-952 244,-244 580,-394 952,-394zm801 545c-205,-205 -488,-332 -801,-332 -313,0 -596,127 -801,332 -205,205 -332,488 -332,801 0,313 127,596 332,801 205,205 488,332 801,332 313,0 596,-127 801,-332 205,-205 332,-488 332,-801 0,-313 -127,-596 -332,-801z"/><path fill="#1a1a1a" fill-rule="nonzero" d="M3413 805c508,0 968,206 1301,539 333,333 539,793 539,1301 0,43 -3,131 -9,214 -5,61 -11,121 -19,160 -121,569 -612,1262 -1055,1889 -273,386 -528,746 -659,1025 -25,53 -88,76 -141,51 -23,-11 -41,-29 -51,-51l0 0c-130,-278 -385,-637 -659,-1023 -438,-618 -922,-1301 -1051,-1868 -10,-44 -18,-107 -23,-171 -7,-86 -11,-177 -11,-224 0,-508 206,-968 539,-1301 333,-333 793,-539 1301,-539zm1150 690c-294,-294 -701,-476 -1150,-476 -449,0 -856,182 -1150,476 -294,294 -476,701 -476,1150 0,43 3,127 10,207 5,58 11,112 18,142 119,525 591,1190 1017,1792 224,315 435,614 582,872 147,-258 358,-557 582,-873 431,-609 908,-1283 1020,-1810 6,-28 11,-78 15,-132 6,-76 9,-157 9,-198 0,-449 -182,-856 -476,-1150z"/><path fill="#1a1a1a" fill-rule="nonzero" d="M3413 1619c121 0 231 50 310 129 79 79 128 189 127 310 0 121-50 231-129 310-79 79-189 128-310 127-121 0-231-50-310-129-79-79-128-189-127-310 0-121 50-231 129-310 79-79 189-128 310-127zm159 279c-41-41-97-66-159-66-62 0-119 25-160 66-41 41-66 97-66 159 0 62 25 119 66 160 41 41 97 66 159 66 62 0 119-25 160-66 41-41 66-97 66-159 0-62-25-119-66-160zM3353 2665l62 260 64-263c12-50 58-83 108-81 9 0 17 0 24 0 14 1 23 1 28 1 200 15 380 107 509 247 128 139 207 324 206 526l0 141c0 32-15 62-37 81-121 109-263 197-418 257-151 58-314 89-485 89-171 0-335-33-485-91-156-61-298-150-420-261-23-21-34-50-34-78l0 0 0-141 0 0 0 0 0 0c0-213 88-406 228-546 140-140 334-226 547-226l0 0 0 0c52 0 95 37 105 86zm-43 741l-144-608c-121 18-230 75-314 158-102 102-165 241-166 395l0 0 0 0 0 0 0 94c94 79 202 144 318 189 127 49 265 77 408 77 144 0 282-26 409-75 117-45 225-109 319-188l0-93c0-147-57-281-150-382-85-91-199-155-328-174l-145 599c-7 41-37 77-81 87-57 14-115-22-128-79zM878 6022c-59 0-107-48-107-107 0-59 48-107 107-107l5071 0c59 0 107 48 107 107 0 59-48 107-107 107l-5071 0z"/></svg>