<svg xmlns="http://www.w3.org/2000/svg" viewBox="0 0 25 25"><g data-name="Layer 6"><path d="M17.5,23H7.5A2.5,2.5,0,0,1,5,20.5V14.21a2.5,2.5,0,0,1,2.5-2.5h10a2.5,2.5,0,0,1,2.5,2.5V20.5A2.5,2.5,0,0,1,17.5,23ZM7.5,12.71A1.5,1.5,0,0,0,6,14.21V20.5A1.5,1.5,0,0,0,7.5,22h10A1.5,1.5,0,0,0,19,20.5V14.21a1.5,1.5,0,0,0-1.5-1.5Z"/><path d="M16.5 12.71h-8a.5.5 0 0 1-.5-.5V6.5a4.5 4.5 0 0 1 9 0v5.71A.5.5 0 0 1 16.5 12.71zm-7.5-1h7V6.5a3.5 3.5 0 0 0-7 0zM12.5 20.24a1.44 1.44 0 0 1-.67-.16l-1-.5A1.5 1.5 0 0 1 10 18.24V15.86a1.5 1.5 0 0 1 1.5-1.5h2a.5.5 0 0 1 .5.5.5.5 0 0 1-.5.5h-2a.5.5 0 0 0-.5.5v2.38a.51.51 0 0 0 .28.45l1 .5a.49.49 0 0 0 .44 0l1.56-.78a.51.51 0 0 1 .67.22.5.5 0 0 1-.23.67l-1.55.78A1.44 1.44 0 0 1 12.5 20.24z"/><path d="M13.5,18a.47.47,0,0,1-.35-.15l-1-1a.49.49,0,0,1,.7-.7l.65.64,2.15-2.14a.49.49,0,0,1,.7.7l-2.5,2.5A.47.47,0,0,1,13.5,18Z"/></g></svg>