<svg xmlns="http://www.w3.org/2000/svg" enable-background="new 0 0 512 512" viewBox="0 0 512 512"><path d="M272.071 239.571H127.429c-4.971 0-9 4.029-9 9s4.029 9 9 9h144.643c4.971 0 9-4.029 9-9S277.042 239.571 272.071 239.571zM239.929 336h-112.5c-4.971 0-9 4.029-9 9s4.029 9 9 9h112.5c4.971 0 9-4.029 9-9S244.899 336 239.929 336z"/><path d="M393.571,279.531c0,0,0-90.546,0-90.548c0-10.791-4.424-21.494-12.119-29.187c0,0-125.679-125.68-125.679-125.68C248.068,26.413,237.486,22,226.589,22H63c-22.607,0-41,18.393-41,41v369.929c0,22.607,18.393,41,41,41h265.686C344.898,484.105,364.058,490,384.571,490C442.705,490,490,442.705,490,384.571C490,329.469,447.508,284.113,393.571,279.531z M248.929,52.729l113.914,113.914h-90.914c-12.682,0-23-10.317-23-23V52.729z M40,432.929V63c0-12.683,10.318-23,23-23h163.589c1.479,0,2.926,0.141,4.339,0.407v103.235c0,22.607,18.393,41,41,41h103.237c0.265,1.411,0.406,2.859,0.406,4.34v90.548c-53.936,4.582-96.428,49.939-96.428,105.041c0,27.499,10.587,52.568,27.892,71.357H63C50.318,455.929,40,445.611,40,432.929z M384.571,472c-47.595,0-87.428-39.88-87.428-87.429c0-48.208,39.22-87.429,87.428-87.429c48.208,0,87.429,39.221,87.429,87.429S432.78,472,384.571,472z"/><path d="M430.429,346.635c-3.908-3.067-9.566-2.389-12.637,1.521l-42.189,53.732l-24.967-24.967c-3.515-3.514-9.213-3.514-12.728,0c-3.515,3.515-3.515,9.214,0,12.729c0,0,32.131,32.131,32.143,32.143c3.763,3.763,10.163,3.373,13.442-0.807l48.456-61.715C435.019,355.362,434.338,349.705,430.429,346.635z"/></svg>