<svg xmlns="http://www.w3.org/2000/svg" width="32" height="32" fill="none" viewBox="0 0 32 32"><path fill="#000" fill-rule="evenodd" d="M14 7C14 5.34314 15.3431 4 17 4H27C28.6569 4 30 5.34315 30 7V25C30 26.6569 28.6569 28 27 28H17C15.3431 28 14 26.6569 14 25V7ZM17 6C16.4477 6 16 6.44772 16 7V25C16 25.5523 16.4477 26 17 26H27C27.5523 26 28 25.5523 28 25V7C28 6.44772 27.5523 6 27 6H17ZM6 9C6 7.34315 7.34315 6 9 6H11C11.5523 6 12 6.44772 12 7C12 7.55228 11.5523 8 11 8H9C8.44772 8 8 8.44772 8 9V23C8 23.5523 8.44772 24 9 24H11C11.5523 24 12 24.4477 12 25C12 25.5523 11.5523 26 11 26H9C7.34315 26 6 24.6569 6 23V9ZM4 10C4 9.44772 3.55228 9 3 9C2.44772 9 2 9.44772 2 10V22C2 22.5523 2.44772 23 3 23C3.55228 23 4 22.5523 4 22V10Z" clip-rule="evenodd"/></svg>